<?xml version="1.0" standalone="no"?><!DOCTYPE svg PUBLIC "-//W3C//DTD SVG 1.1//EN" "http://www.w3.org/Graphics/SVG/1.1/DTD/svg11.dtd"><svg t="1515501505550" class="icon" style="" viewBox="0 0 1024 1024" version="1.1" xmlns="http://www.w3.org/2000/svg" p-id="2012" xmlns:xlink="http://www.w3.org/1999/xlink" width="200" height="200"><defs><style type="text/css"></style></defs><path d="M556.8 876.8c-12.8 12.8-28.8 19.2-44.8 19.2-16 0-32-6.4-44.8-19.2-12.8-12.8-32-12.8-44.8 0s-12.8 32 0 44.8c22.4 22.4 54.4 38.4 89.6 38.4 35.2 0 67.2-12.8 89.6-38.4 12.8-12.8 12.8-32 0-44.8-12.8-12.8-32-12.8-44.8 0zM928 736c-35.2 0-64-28.8-64-64v-224c0-195.2-156.8-352-352-352s-352 156.8-352 352v224c0 35.2-28.8 64-64 64-19.2 0-32 12.8-32 32s12.8 32 32 32h832c19.2 0 32-12.8 32-32s-12.8-32-32-32z m-720 0c9.6-19.2 16-41.6 16-64v-224c0-160 128-288 288-288s288 128 288 288v224c0 22.4 6.4 44.8 16 64h-608z" p-id="2013" fill="#393d48"></path></svg>